<?xml version="1.0" encoding="utf-8"?>
<svg 
 width="600" height="400"
 viewBox="0 0 600 400"
 xmlns="http://www.w3.org/2000/svg"
 xmlns:xlink="http://www.w3.org/1999/xlink"
>
<desc>Produced by GNUPLOT 6.0 patchlevel 2, compressed by vecta.io/nano.</desc>
<style><![CDATA[.B{stroke:#000}.C{fill:#000}.D{font-family:DejaVu Sans}.E{font-size:12px}.F{stroke:none}.G{stroke:gray}.H{stroke-dasharray:2,4}.I{stroke-width:.5}.J{text-anchor:middle}.K{text-anchor:end}.L{stroke-width:.222}]]></style><defs><path  d="M-1-1h2v2h-2z" class="B L"/><path  d="M0-1.33l-1.33 2h2.66z" class="B L"/><path id="C" d="M96.48 342.4h478.34"/><path id="D" d="M96.48 342.4V18.01"/><path id="E" d="M96.48 18.01V342.4h478.34M96.48 18.01"/></defs><g fill="none"><use href="#C" class="G H I"/><g class="B"><path d="M96.48 342.4h9"/><text transform="translate(88.09 346.3)" class="C D E F K"><tspan> 0</tspan></text></g><use href="#C" y="-40.55" class="G H I"/><g class="B"><path d="M96.48 301.85h9"/><text transform="translate(88.09 305.75)" class="C D E F K"><tspan> 10000</tspan></text></g><use href="#C" y="-81.1" class="G H I"/><g class="B"><path d="M96.48 261.3h9"/><text transform="translate(88.09 265.2)" class="C D E F K"><tspan> 20000</tspan></text></g><use href="#C" y="-121.65" class="G H I"/><g class="B"><path d="M96.48 220.75h9"/><text transform="translate(88.09 224.65)" class="C D E F K"><tspan> 30000</tspan></text></g><use href="#C" y="-162.2" class="G H I"/><g class="B"><path d="M96.48 180.2h9"/><text transform="translate(88.09 184.1)" class="C D E F K"><tspan> 40000</tspan></text></g><use href="#C" y="-202.74" class="G H I"/><g class="B"><path d="M96.48 139.66h9"/><text transform="translate(88.09 143.56)" class="C D E F K"><tspan> 50000</tspan></text></g><use href="#C" y="-243.29" class="G H I"/><g class="B"><path d="M96.48 99.11h9"/><text transform="translate(88.09 103.01)" class="C D E F K"><tspan> 60000</tspan></text></g><use href="#C" y="-283.84" class="G H I"/><g class="B"><path d="M96.48 58.56h9"/><text transform="translate(88.09 62.46)" class="C D E F K"><tspan> 70000</tspan></text></g><use href="#C" y="-324.39" class="G H I"/><g class="B"><path d="M96.48 18.01h9"/><text transform="translate(88.09 21.91)" class="C D E F K"><tspan> 80000</tspan></text></g><use href="#D" class="G H I"/><g class="B"><path d="M96.48 342.4v-9"/><text transform="translate(96.48 364.3)" class="C D E F J"><tspan>1994</tspan></text></g><use href="#D" x="43.5" class="G H I"/><g class="B"><path d="M139.98 342.4v-9"/><text transform="translate(139.98 364.3)" class="C D E F J"><tspan>1997</tspan></text></g><use href="#D" x="86.95" class="G H I"/><g class="B"><path d="M183.43 342.4v-9"/><text transform="translate(183.43 364.3)" class="C D E F J"><tspan>2000</tspan></text></g><use href="#D" x="130.45" class="G H I"/><g class="B"><path d="M226.93 342.4v-9"/><text transform="translate(226.93 364.3)" class="C D E F J"><tspan>2003</tspan></text></g><use href="#D" x="173.94" class="G H I"/><g class="B"><path d="M270.42 342.4v-9"/><text transform="translate(270.42 364.3)" class="C D E F J"><tspan>2006</tspan></text></g><use href="#D" x="217.44" class="G H I"/><g class="B"><path d="M313.92 342.4v-9"/><text transform="translate(313.92 364.3)" class="C D E F J"><tspan>2009</tspan></text></g><use href="#D" x="260.89" class="G H I"/><g class="B"><path d="M357.37 342.4v-9"/><text transform="translate(357.37 364.3)" class="C D E F J"><tspan>2012</tspan></text></g><use href="#D" x="304.39" class="G H I"/><g class="B"><path d="M400.87 342.4v-9"/><text transform="translate(400.87 364.3)" class="C D E F J"><tspan>2015</tspan></text></g><use href="#D" x="347.88" class="G H I"/><g class="B"><path d="M444.36 342.4v-9"/><text transform="translate(444.36 364.3)" class="C D E F J"><tspan>2018</tspan></text></g><use href="#D" x="391.38" class="G H I"/><g class="B"><path d="M487.86 342.4v-9"/><text transform="translate(487.86 364.3)" class="C D E F J"><tspan>2021</tspan></text></g><use href="#D" x="434.83" class="G H I"/><g class="B"><path d="M531.31 342.4v-9"/><text transform="translate(531.31 364.3)" class="C D E F J"><tspan>2024</tspan></text></g><use href="#D" x="478.33" class="G H I"/><g class="B"><path d="M574.81 342.4v-9"/><text transform="translate(574.81 364.3)" class="C D E F J"><tspan>2027</tspan></text><use href="#E"/></g><path stroke="red" d="M96.48 341.99l51.91-3.64 25.32-4.06 23.02-4.05 12.06-4.06 7.22-4.05 21.75-20.28 18.18-20.27L303 241.03l21.75-20.28 38.66-40.55 47.1-40.54 25.36-20.28 30.16-20.27 25.4-20.28 53.18-40.55" stroke-width="2"/><g class="B"><use href="#E"/><text transform="translate(18.87 184.11)" class="C D E F J"><tspan>📚</tspan></text></g></g><text transform="translate(335.65 391.3)" class="C D E J"><tspan>📅</tspan></text></svg>
